<svg xmlns="http://www.w3.org/2000/svg" xmlns:xlink="http://www.w3.org/1999/xlink" viewBox="0 0 36.98 7.97"><defs><style>.cls-1{fill:#39a4dd;}.cls-2{fill:#3474bb;}.cls-3{fill:#fafbfc;}.cls-4{fill:#cc2028;}.cls-5{fill:#f2f2f2;}.cls-6{fill:url(#linear-gradient);}.cls-7{fill:url(#linear-gradient-3);}</style><linearGradient id="linear-gradient" x1="33.35" y1="-417.59" x2="33.35" y2="-425.47" gradientTransform="translate(0 426)" gradientUnits="userSpaceOnUse"><stop offset="0" stop-color="#e19c3d"/><stop offset="0.3" stop-color="#c74d4e"/><stop offset="0.6" stop-color="#c21c76"/><stop offset="1" stop-color="#6a479c"/></linearGradient><linearGradient id="linear-gradient-3" x1="35.41" y1="-417.59" x2="35.41" y2="-425.47" gradientTransform="translate(-0.35 425.54)" xlink:href="#linear-gradient"/></defs><title>all</title><g id="Layer_1" data-name="Layer 1"><path class="cls-1" d="M9.79,1.44a3.88,3.88,0,0,1-1.12.31A1.94,1.94,0,0,0,9.53.68a4.07,4.07,0,0,1-1.23.47A1.93,1.93,0,0,0,5,2.47a1.61,1.61,0,0,0,0,.44,5.48,5.48,0,0,1-4-2A1.92,1.92,0,0,0,1.6,3.47a1.85,1.85,0,0,1-.87-.23v0a1.94,1.94,0,0,0,1.55,1.9,2.1,2.1,0,0,1-.51.06,2.31,2.31,0,0,1-.37,0A2,2,0,0,0,3.21,6.54a3.91,3.91,0,0,1-2.4.82l-.46,0a5.47,5.47,0,0,0,3,.86A5.47,5.47,0,0,0,8.83,2.7c0-.09,0-.17,0-.25A4,4,0,0,0,9.79,1.44Z" transform="translate(-0.35 -0.46)"/><path class="cls-2" d="M17.62.67H11.91a1,1,0,0,0-1,1V7.34a1,1,0,0,0,1,.95h5.71a1,1,0,0,0,1-.95V1.62A1,1,0,0,0,17.62.67Z" transform="translate(-0.35 -0.46)"/><path class="cls-3" d="M17.39,4.15h-1.2v-1c0-.26.22-.24.48-.24h.48V1.77h-1A1.43,1.43,0,0,0,14.76,3.2v1h-.95v1.2h.95V8h1.43V5.35h.72Z" transform="translate(-0.35 -0.46)"/><circle class="cls-4" cx="23.84" cy="3.99" r="3.95"/><path class="cls-5" d="M24.51,5.79c-.3,0-.42-.17-.66-.31a2.51,2.51,0,0,1-.75,1.66,6.88,6.88,0,0,1,.38-2.6c-.28-.47,0-1.43.62-1.19s-.63,1.76.29,1.94,1.34-1.65.75-2.26a1.4,1.4,0,0,0-2.29,1.23c0,.3.36.39.13.81-.55-.12-.71-.55-.69-1.13A1.83,1.83,0,0,1,24,2.25,1.78,1.78,0,0,1,26.08,3.6c.15,1.09-.47,2.28-1.57,2.19Z" transform="translate(-0.35 -0.46)"/><path class="cls-6" d="M35,.46H31.74a2.39,2.39,0,0,0-2.38,2.38V6.06a2.38,2.38,0,0,0,2.38,2.37H35a2.38,2.38,0,0,0,2.37-2.37V2.84A2.38,2.38,0,0,0,35,.46Zm1.57,5.6A1.58,1.58,0,0,1,35,7.63H31.74a1.58,1.58,0,0,1-1.58-1.57V2.84a1.58,1.58,0,0,1,1.58-1.58H35a1.58,1.58,0,0,1,1.57,1.58V6.06Z" transform="translate(-0.35 -0.46)"/><path class="cls-6" d="M33.35,2.39a2.06,2.06,0,1,0,2.06,2.06A2.07,2.07,0,0,0,33.35,2.39Zm0,3.32A1.26,1.26,0,1,1,34.6,4.45,1.26,1.26,0,0,1,33.35,5.71Z" transform="translate(-0.35 -0.46)"/><circle class="cls-7" cx="35.06" cy="1.94" r="0.49"/></g></svg>